<?xml version="1.0" encoding="UTF-8" standalone="no"?>
<!-- Created with Inkscape (http://www.inkscape.org/) -->

<svg
   xmlns:dc="http://purl.org/dc/elements/1.1/"
   xmlns:cc="http://creativecommons.org/ns#"
   xmlns:rdf="http://www.w3.org/1999/02/22-rdf-syntax-ns#"
   xmlns:svg="http://www.w3.org/2000/svg"
   xmlns="http://www.w3.org/2000/svg"
   xmlns:sodipodi="http://sodipodi.sourceforge.net/DTD/sodipodi-0.dtd"
   xmlns:inkscape="http://www.inkscape.org/namespaces/inkscape"
   width="6.3499999mm"
   height="5.1604099mm"
   viewBox="0 0 6.3499999 5.1604099"
   version="1.1"
   id="svg8"
   inkscape:version="0.92.4 (5da689c313, 2019-01-14)"
   sodipodi:docname="twitter-logo.svg">
  <defs
     id="defs2" />
  <sodipodi:namedview
     id="base"
     pagecolor="#ffffff"
     bordercolor="#666666"
     borderopacity="1.0"
     inkscape:pageopacity="0.0"
     inkscape:pageshadow="2"
     inkscape:zoom="15.839192"
     inkscape:cx="29.248569"
     inkscape:cy="15.491915"
     inkscape:document-units="mm"
     inkscape:current-layer="layer1"
     showgrid="false"
     inkscape:window-width="1920"
     inkscape:window-height="1017"
     inkscape:window-x="-8"
     inkscape:window-y="-8"
     inkscape:window-maximized="1" />
  <metadata
     id="metadata5">
    <rdf:RDF>
      <cc:Work
         rdf:about="">
        <dc:format>image/svg+xml</dc:format>
        <dc:type
           rdf:resource="http://purl.org/dc/dcmitype/StillImage" />
        <dc:title></dc:title>
      </cc:Work>
    </rdf:RDF>
  </metadata>
  <g
     inkscape:label="Layer 1"
     inkscape:groupmode="layer"
     id="layer1"
     transform="translate(-32.371847,-172.01034)">
    <path
       id="path828"
       d="m 38.721847,172.62126 c -0.233627,0.10372 -0.484717,0.17357 -0.748242,0.20505 0.269082,-0.16113 0.475721,-0.41645 0.572823,-0.72072 -0.251618,0.14922 -0.530489,0.2577 -0.827352,0.31618 -0.237331,-0.25321 -0.576262,-0.41143 -0.950912,-0.41143 -0.841111,0 -1.459177,0.78475 -1.269206,1.59941 -1.082411,-0.0542 -2.042319,-0.57283 -2.684992,-1.36102 -0.341313,0.58552 -0.177006,1.35149 0.40296,1.73937 -0.213254,-0.007 -0.414337,-0.0653 -0.589756,-0.16298 -0.01429,0.60351 0.418306,1.16813 1.04484,1.29381 -0.183357,0.0497 -0.384175,0.0614 -0.588434,0.0222 0.16563,0.51753 0.646642,0.89403 1.217084,0.90461 -0.547688,0.42942 -1.237721,0.62125 -1.928813,0.53975 0.576527,0.36963 1.261533,0.58526 1.997075,0.58526 2.418821,0 3.785394,-2.04284 3.702844,-3.87508 0.254529,-0.18389 0.475456,-0.41328 0.650081,-0.67443 z"
       inkscape:connector-curvature="0"
       style="fill:#ffffff;fill-opacity:1;stroke:none;stroke-width:0.26458332" />
  </g>
</svg>
